<svg width="19" height="19" viewBox="0 0 19 19" fill="none" xmlns="http://www.w3.org/2000/svg">
<path d="M9.41321 0C4.22653 0 0 4.22653 0 9.41321C0 14.5999 4.22653 18.8264 9.41321 18.8264C14.5999 18.8264 18.8264 14.5999 18.8264 9.41321C18.8264 4.22653 14.5999 0 9.41321 0ZM8.70722 5.64793C8.70722 5.26199 9.02727 4.94194 9.41321 4.94194C9.79915 4.94194 10.1192 5.26199 10.1192 5.64793V10.3545C10.1192 10.7405 9.79915 11.0605 9.41321 11.0605C9.02727 11.0605 8.70722 10.7405 8.70722 10.3545V5.64793ZM10.2792 13.5362C10.2322 13.6586 10.1663 13.7527 10.0816 13.8468C9.98742 13.9316 9.88387 13.9974 9.77091 14.0445C9.65796 14.0916 9.53558 14.1198 9.41321 14.1198C9.29084 14.1198 9.16847 14.0916 9.05551 14.0445C8.94255 13.9974 8.83901 13.9316 8.74487 13.8468C8.66015 13.7527 8.59426 13.6586 8.5472 13.5362C8.50013 13.4232 8.47189 13.3009 8.47189 13.1785C8.47189 13.0561 8.50013 12.9338 8.5472 12.8208C8.59426 12.7078 8.66015 12.6043 8.74487 12.5102C8.83901 12.4254 8.94255 12.3595 9.05551 12.3125C9.28143 12.2183 9.545 12.2183 9.77091 12.3125C9.88387 12.3595 9.98742 12.4254 10.0816 12.5102C10.1663 12.6043 10.2322 12.7078 10.2792 12.8208C10.3263 12.9338 10.3545 13.0561 10.3545 13.1785C10.3545 13.3009 10.3263 13.4232 10.2792 13.5362Z" fill="#949597"/>
</svg>
